<svg width="22" height="25" viewBox="0 0 22 25" fill="none" xmlns="http://www.w3.org/2000/svg">
<path d="M21.0807 9.69568L12.5515 1.16518C11.806 0.41955 10.5803 0.41955 9.83483 1.16518L1.15406 9.84733C0.78762 10.2138 0.585449 10.6941 0.585449 11.1996V23.0664C0.585449 24.128 1.44468 24.9874 2.50609 24.9874H19.716C20.7774 24.9874 21.6366 24.128 21.6366 23.0664V11.0353C21.6366 10.5298 21.4345 10.0369 21.068 9.68303L21.0807 9.69568ZM14.7375 19.6669C14.7375 20.0208 14.4469 20.3114 14.0931 20.3114H8.31854C7.96473 20.3114 7.67411 20.0208 7.67411 19.6669V14.2199C7.67411 13.8661 7.96473 13.5755 8.31854 13.5755H14.0931C14.4469 13.5755 14.7375 13.8661 14.7375 14.2199V19.6669Z" fill="#231F20"/>
</svg>
