<svg width="25" height="24" viewBox="0 0 25 24" fill="none" xmlns="http://www.w3.org/2000/svg">
<path d="M1.25555 11.9814L3.20146 23.0648C3.252 23.3681 3.51735 23.5956 3.83325 23.5956H20.6641C20.98 23.5956 21.258 23.3555 21.2959 23.0522L22.888 11.9941H1.24292L1.25555 11.9814ZM9.67097 20.8152H7.39653V18.5405H9.67097V20.8152ZM9.67097 17.0492H7.39653V14.7744H9.67097V17.0492ZM13.3859 20.8152H11.1114V18.5405H13.3859V20.8152ZM13.3859 17.0492H11.1114V14.7744H13.3859V17.0492ZM17.164 20.8152H14.8895V18.5405H17.164V20.8152ZM17.164 17.0492H14.8895V14.7744H17.164V17.0492Z" fill="#231F20"/>
<path d="M23.9369 8.70825H0.585999C0.306857 8.70825 0.0805664 8.93453 0.0805664 9.21372V10.5533C0.0805664 10.8325 0.306857 11.0589 0.585999 11.0589H23.9369C24.216 11.0589 24.4423 10.8325 24.4423 10.5533V9.21372C24.4423 8.93453 24.216 8.70825 23.9369 8.70825Z" fill="#231F20"/>
<path d="M10.1512 0.910785C9.74685 0.645392 9.19088 0.74651 8.92553 1.16356L4.9579 7.12863C4.89472 7.22973 4.85681 7.33083 4.83154 7.44457H5.81713H6.87854L10.4039 2.14934C10.6693 1.74493 10.5682 1.18883 10.1512 0.923436V0.910785Z" fill="black"/>
<path d="M14.5358 1.69436L18.554 7.43196H19.5143C19.489 7.30559 19.4511 7.16659 19.3753 7.05285L15.2687 1.1889C14.9907 0.78449 14.4347 0.696047 14.0304 0.974078C13.626 1.25211 13.5376 1.80815 13.8156 2.21256L17.48 7.44461H18.554L14.5358 1.70701V1.69436Z" fill="black"/>
</svg>
