<svg width="100" height="38" viewBox="0 0 100 38" fill="none" xmlns="http://www.w3.org/2000/svg">
<path d="M13.0676 24.9143H7.76019L7.4999 21.2893H5.56772L5.30743 24.9143H0L2.59682 4.37183H10.2408L13.0676 24.9143ZM5.56772 17.6643H7.41394L6.49023 7.99683H6.43333L5.56772 17.6643Z" fill="white"/>
<path d="M21.3742 14.5851H21.4323V4.37183H25.9323V24.9143H21.4323L18.4324 13.4343H18.3452V24.9143H13.8453V4.37183H18.3452L21.3742 14.5851Z" fill="white"/>
<path d="M33.5174 3.93951C35.5949 3.93951 37.1378 4.35702 38.1469 5.19172C39.1566 6.02582 39.6614 7.52678 39.6614 9.6946V11.9382H34.354V8.65854C34.354 8.17885 34.2816 7.84799 34.1373 7.66595C33.9935 7.48331 33.7868 7.39184 33.5174 7.39184C32.8443 7.39184 32.5078 7.87184 32.5078 8.83122V20.2822C32.5078 20.7806 32.594 21.1595 32.7668 21.4185C32.9403 21.6778 33.1906 21.8073 33.5174 21.8073C33.883 21.8073 34.1424 21.6923 34.2959 21.462C34.4499 21.2319 34.5271 20.8673 34.5271 20.368V16.7719H33.4315V13.8376H39.8345V24.9143H36.3733L35.9702 23.4761C35.5083 24.0896 34.9266 24.5545 34.2244 24.8708C33.5223 25.1872 32.7674 25.3454 31.9605 25.3454C30.2681 25.3454 29.0514 24.7751 28.3105 23.6343C27.5702 22.4929 27.2003 21.1166 27.2003 19.5058V10.1547C27.2003 7.96753 27.7288 6.38476 28.7863 5.40666C29.8443 4.42856 31.4212 3.93951 33.5174 3.93951Z" fill="white"/>
<path d="M52.93 8.94595V11.7366C52.93 13.3676 52.555 14.5764 51.8053 15.3628C51.0553 16.1486 50.0075 16.5413 48.6613 16.5413H46.2376V24.9143H41.1033V4.37183H48.171C49.6897 4.37183 50.8625 4.77001 51.6891 5.56607C52.5163 6.36153 52.93 7.48816 52.93 8.94595ZM48.43 11.9092V9.00391C48.43 8.21751 48.0263 7.82415 47.2194 7.82415H46.2376V13.089H47.2194C48.0263 13.089 48.43 12.6959 48.43 11.9092Z" fill="white"/>
<path d="M66.4876 24.9143H61.1802L60.9199 21.2893H58.9877L58.7274 24.9143H53.42L56.0168 4.37183H63.6608L66.4876 24.9143ZM58.9877 17.6643H60.8339L59.9102 7.99683H59.8533L58.9877 17.6643Z" fill="white"/>
<path d="M73.5824 3.93951C75.6404 3.93951 77.2076 4.42856 78.2845 5.40666C79.361 6.38476 79.8995 7.96753 79.8995 10.1547V19.1314C79.8995 21.2987 79.3659 22.876 78.299 23.8638C77.2318 24.8515 75.6598 25.3454 73.5824 25.3454C71.5055 25.3454 69.9335 24.8612 68.8657 23.8927C67.7985 22.9243 67.2653 21.3373 67.2653 19.1314V10.1547C67.2653 7.98685 67.7985 6.40891 68.8657 5.42115C69.9335 4.43339 71.5055 3.93951 73.5824 3.93951ZM72.5727 8.65854V20.6276C72.5727 21.0303 72.659 21.3418 72.8318 21.5622C73.0052 21.7829 73.2555 21.8931 73.5824 21.8931C73.9092 21.8931 74.1589 21.7829 74.3318 21.5622C74.5052 21.3418 74.592 21.0303 74.592 20.6276V8.65854C74.592 8.25523 74.5052 7.94338 74.3318 7.72271C74.1589 7.50233 73.9092 7.39184 73.5824 7.39184C72.9093 7.39184 72.5727 7.81418 72.5727 8.65854Z" fill="white"/>
<path d="M88.7367 17.0225L84.0685 17.2906L82.0843 0.376749L88.6314 0L88.7367 17.0225ZM89.4789 23.1121L84.1315 23.4188L83.8736 18.957L89.221 18.6503L89.4789 23.1121Z" fill="white"/>
<path d="M97.8908 22.15L93.2274 21.8119L93.4574 4.78333L99.9985 5.25668L97.8908 22.15ZM97.8351 28.2831L92.4913 27.8967L92.8158 23.4397L98.1595 23.8261L97.8351 28.2831Z" fill="white"/>
<path d="M54.0486 29.531C54.0389 29.4377 54.0625 29.3649 54.12 29.3124C54.1781 29.2593 54.2441 29.2312 54.3185 29.2279C54.3936 29.2249 54.4644 29.2469 54.5316 29.2943C54.5994 29.3411 54.6375 29.4114 54.6466 29.5056C54.6844 29.9074 54.7344 30.3062 54.7967 30.7023C54.8597 31.0983 54.8951 31.4986 54.9033 31.9026C55.1648 31.8117 55.4326 31.7441 55.7071 31.6997C55.9822 31.6547 56.2537 31.661 56.5219 31.719C56.6832 31.7522 56.8394 31.8102 56.9904 31.8929C57.142 31.9759 57.2586 32.0955 57.3403 32.2515C57.412 32.3925 57.4626 32.5374 57.4916 32.6862C57.5207 32.8345 57.5334 32.9878 57.5304 33.1463C57.5237 33.3317 57.4952 33.5049 57.4444 33.6668C57.3936 33.8286 57.314 33.9849 57.2059 34.1353C57.1072 34.2738 56.9946 34.407 56.8681 34.535C56.7413 34.6624 56.5997 34.7668 56.4432 34.8489C56.3494 34.8933 56.2568 34.9187 56.1648 34.925C56.0727 34.9316 55.9813 34.9232 55.8911 34.8996C55.8007 34.8764 55.712 34.8453 55.6248 34.8067C55.5376 34.7674 55.4529 34.7245 55.3706 34.6787C55.2889 34.6328 55.2096 34.5878 55.1321 34.5434C55.0552 34.4993 54.9807 34.4468 54.9081 34.3864L54.8694 34.5362C54.8742 34.6361 54.8464 34.711 54.7858 34.7608C54.7253 34.8109 54.6575 34.8378 54.5825 34.8417C54.508 34.845 54.4387 34.8242 54.3742 34.7789C54.3104 34.7339 54.2762 34.6615 54.2713 34.5615C54.251 34.2349 54.2489 33.9116 54.2653 33.5919C54.2813 33.2716 54.2946 32.9492 54.3052 32.6247C54.2404 32.5371 54.2114 32.4556 54.218 32.3807C54.2253 32.3059 54.2556 32.2449 54.3088 32.1972C54.3113 32.1522 54.3113 32.1075 54.3088 32.0632C54.307 32.0191 54.3055 31.9744 54.304 31.9291C54.2967 31.5252 54.2616 31.1249 54.1987 30.7288C54.1357 30.3328 54.0855 29.9337 54.0486 29.531ZM54.8948 32.5607C54.8924 32.7354 54.8869 32.9078 54.8791 33.0775C54.8718 33.2474 54.8648 33.4198 54.8585 33.5943C54.9762 33.674 55.0873 33.7603 55.1914 33.8527C55.2955 33.9454 55.4117 34.0239 55.5401 34.0882C55.5706 34.1075 55.6127 34.1347 55.666 34.1691C55.7198 34.2038 55.7764 34.2376 55.8355 34.2705C55.8951 34.3028 55.9541 34.3261 56.0122 34.3406C56.0703 34.355 56.1187 34.349 56.1575 34.3224C56.2598 34.263 56.3566 34.1929 56.448 34.1123C56.5391 34.0311 56.6212 33.9403 56.6938 33.8394C56.767 33.7389 56.8249 33.6326 56.8669 33.5206C56.9096 33.4089 56.9311 33.293 56.9311 33.1729C56.9359 33.069 56.9317 32.96 56.919 32.8456C56.9069 32.7315 56.8742 32.628 56.8209 32.5353C56.7619 32.4435 56.6805 32.3801 56.5764 32.3445C56.4723 32.3092 56.3648 32.2862 56.2543 32.2757C56.0225 32.2515 55.7919 32.2681 55.5619 32.3252C55.3324 32.3825 55.1103 32.461 54.8948 32.5607Z" fill="white"/>
<path d="M60.8278 31.4463C60.8995 31.4834 60.9495 31.5414 60.9779 31.6202C61.0061 31.6984 60.9973 31.7729 60.9513 31.8436C60.8332 32.0289 60.7482 32.23 60.6958 32.4473C60.6432 32.6641 60.5814 32.8757 60.5106 33.0825C60.4355 33.3056 60.3511 33.5217 60.2576 33.731C60.1647 33.9396 60.0654 34.1506 59.9598 34.3637C59.9507 34.3897 59.9404 34.4114 59.9283 34.4289C59.9168 34.4467 59.9068 34.4684 59.898 34.4941C59.9213 34.5732 59.9132 34.6447 59.8738 34.7091C59.8342 34.7727 59.7797 34.8186 59.7104 34.8467C59.5221 35.2041 59.332 35.5579 59.1402 35.9081C58.948 36.2583 58.757 36.6115 58.5675 36.9683C58.5221 37.0553 58.461 37.1054 58.3835 37.1193C58.3066 37.1329 58.2349 37.1223 58.168 37.0879C58.1017 37.0532 58.0521 37 58.0191 36.9285C57.9858 36.8575 57.9925 36.7791 58.0385 36.693C58.2328 36.3259 58.4295 35.9619 58.6281 35.6014C58.8266 35.2407 59.0227 34.8769 59.2164 34.5098C58.9743 34.1162 58.7419 33.7186 58.5191 33.3168C58.2963 32.9153 58.0687 32.515 57.8363 32.1165C57.7873 32.0344 57.777 31.9568 57.806 31.8834C57.8357 31.8095 57.8811 31.7524 57.9416 31.712C58.0022 31.6718 58.0712 31.6552 58.1487 31.6625C58.2267 31.6691 58.2903 31.7132 58.3387 31.7953C58.5388 32.1455 58.7364 32.495 58.9319 32.8434C59.1281 33.1912 59.329 33.5374 59.5348 33.8819C59.7034 33.535 59.852 33.1719 59.9803 32.7927C60.0463 32.585 60.1081 32.3743 60.1656 32.16C60.2237 31.945 60.3115 31.7482 60.4295 31.5695C60.4707 31.497 60.5279 31.4481 60.6014 31.4222C60.6746 31.3965 60.7503 31.4046 60.8278 31.4463Z" fill="white"/>
<path d="M63.9499 33.0577C63.9272 32.9991 63.9221 32.9369 63.9342 32.8717C63.8728 32.2713 63.8089 31.6748 63.7429 31.0822C63.6766 30.4899 63.6521 29.8909 63.6691 29.2854C63.6763 29.2017 63.7045 29.1302 63.7538 29.0704C63.8038 29.01 63.8706 28.978 63.9548 28.9738C64.0347 28.9708 64.1085 28.9965 64.1763 29.0511C64.2441 29.106 64.2747 29.1752 64.2683 29.2588C64.252 29.804 64.2708 30.3407 64.324 30.8696C64.3779 31.3979 64.4345 31.9323 64.4935 32.4732C64.7653 32.2873 65.0386 32.1058 65.3131 31.9286C65.5873 31.7517 65.8558 31.5652 66.1182 31.3695C66.1957 31.3116 66.2707 31.2947 66.3434 31.3188C66.4166 31.343 66.4735 31.3865 66.5141 31.4492C66.5543 31.512 66.571 31.5839 66.5637 31.6642C66.557 31.7439 66.5156 31.8127 66.439 31.8707C66.1781 32.0672 65.9127 32.2529 65.6424 32.4273C65.3727 32.6012 65.1019 32.7787 64.8301 32.9599C65.1739 33.1694 65.5156 33.3813 65.8555 33.5962C66.1951 33.8106 66.5277 34.037 66.853 34.2761C66.9199 34.3286 66.9529 34.3986 66.9523 34.4862C66.9514 34.5731 66.9248 34.6453 66.8724 34.7023C66.8095 34.7651 66.7392 34.7956 66.6618 34.7941C66.5849 34.7923 66.5132 34.7681 66.4463 34.7217C66.146 34.5004 65.8416 34.2918 65.5335 34.0962C65.225 33.9005 64.9112 33.7046 64.5916 33.5081C64.6052 33.6983 64.6149 33.8903 64.6206 34.0841C64.627 34.2773 64.6297 34.469 64.6291 34.6589C64.6273 34.7585 64.5964 34.8333 64.5359 34.8835C64.476 34.9342 64.4088 34.961 64.3337 34.9644C64.2587 34.9674 64.1899 34.9466 64.1279 34.9016C64.0665 34.8572 64.0365 34.785 64.0383 34.6854C64.0359 34.4158 64.0274 34.1457 64.0129 33.8752C63.9984 33.6041 63.9772 33.3315 63.9499 33.0577Z" fill="white"/>
<path d="M69.3414 28.8558C69.3317 28.7625 69.3553 28.6898 69.4128 28.6372C69.4709 28.5841 69.5369 28.556 69.6114 28.5527C69.6864 28.5497 69.7573 28.5717 69.8245 28.6191C69.8922 28.6659 69.9304 28.7362 69.9395 28.8304C69.9773 29.2322 70.0272 29.631 70.0896 30.0271C70.1525 30.4232 70.1879 30.8235 70.1961 31.2274C70.4576 31.1365 70.7255 31.0689 71 31.0245C71.2751 30.9795 71.5466 30.9859 71.8147 31.0438C71.9761 31.077 72.1322 31.135 72.2833 31.2177C72.4349 31.3007 72.5514 31.4203 72.6331 31.5764C72.7049 31.7173 72.7554 31.8622 72.7845 32.0111C72.8135 32.1593 72.8262 32.3126 72.8232 32.4711C72.8165 32.6565 72.7881 32.8298 72.7372 32.9916C72.6864 33.1534 72.6068 33.3098 72.4987 33.4601C72.4001 33.5987 72.2875 33.7318 72.161 33.8598C72.0342 33.9872 71.8925 34.0916 71.736 34.1738C71.6422 34.2181 71.5496 34.2435 71.4576 34.2498C71.3656 34.2565 71.2742 34.248 71.184 34.2245C71.0935 34.2012 71.0048 34.1701 70.9177 34.1315C70.8305 34.0922 70.7457 34.0494 70.6634 34.0035C70.5817 33.9576 70.5024 33.9126 70.4249 33.8682C70.3481 33.8242 70.2736 33.7716 70.201 33.7113L70.1622 33.861C70.1671 33.9609 70.1392 34.0358 70.0787 34.0856C70.0182 34.1357 69.9504 34.1626 69.8753 34.1665C69.8008 34.1698 69.7315 34.149 69.6671 34.1037C69.6032 34.0587 69.569 33.9863 69.5642 33.8864C69.5439 33.5597 69.5418 33.2364 69.5581 32.9167C69.5742 32.5964 69.5875 32.274 69.5981 31.9495C69.5333 31.8619 69.5042 31.7804 69.5109 31.7056C69.5182 31.6307 69.5484 31.5697 69.6017 31.522C69.6041 31.477 69.6041 31.4324 69.6017 31.388C69.5999 31.3439 69.5984 31.2992 69.5969 31.2539C69.5896 30.85 69.5545 30.4497 69.4915 30.0537C69.4286 29.6576 69.3783 29.2585 69.3414 28.8558ZM70.1876 31.8855C70.1852 32.0603 70.1798 32.2326 70.1719 32.4023C70.1646 32.5723 70.1577 32.7446 70.1513 32.9191C70.2691 32.9988 70.3801 33.0852 70.4842 33.1775C70.5884 33.2702 70.7046 33.3487 70.8329 33.413C70.8635 33.4323 70.9055 33.4595 70.9588 33.4939C71.0127 33.5286 71.0693 33.5624 71.1283 33.5953C71.1879 33.6276 71.2469 33.6509 71.3051 33.6654C71.3632 33.6799 71.4116 33.6738 71.4503 33.6473C71.5526 33.5878 71.6495 33.5178 71.7409 33.4372C71.832 33.356 71.914 33.2651 71.9866 33.1643C72.0599 33.0637 72.1177 32.9575 72.1598 32.8455C72.2024 32.7338 72.2239 32.6179 72.2239 32.4977C72.2288 32.3939 72.2245 32.2849 72.2118 32.1705C72.1997 32.0563 72.167 31.9528 72.1138 31.8601C72.0547 31.7684 71.9733 31.705 71.8692 31.6693C71.7651 31.634 71.6577 31.6111 71.5472 31.6005C71.3154 31.5764 71.0847 31.593 70.8547 31.65C70.6253 31.7074 70.4031 31.7859 70.1876 31.8855Z" fill="white"/>
<path d="M73.9633 34.0302C73.7905 33.9626 73.6525 33.8654 73.5493 33.738C73.4458 33.6109 73.3716 33.4684 73.3265 33.3105C73.282 33.1529 73.2639 32.9878 73.272 32.8154C73.2799 32.6424 73.3078 32.4755 73.3556 32.3143C73.3943 32.1881 73.4394 32.0565 73.4912 31.9194C73.5426 31.7827 73.6056 31.655 73.68 31.5367C73.7551 31.4183 73.8453 31.3163 73.9512 31.2299C74.0577 31.143 74.1852 31.0838 74.3338 31.0524C74.4878 31.0204 74.6431 31.0047 74.7999 31.0053C74.9573 31.0062 75.1137 31.0156 75.2696 31.0331C75.3404 31.0404 75.4088 31.0536 75.4742 31.073C75.5402 31.0923 75.6062 31.1128 75.6715 31.1345C75.673 31.0606 75.7042 30.9975 75.7647 30.945C75.8253 30.8918 75.8907 30.8638 75.9609 30.8604C76.0447 30.8565 76.114 30.8822 76.1691 30.9377C76.2239 30.9933 76.2581 31.0603 76.272 31.1382C76.3065 31.3661 76.3277 31.5946 76.335 31.824C76.3428 32.0535 76.3459 32.2829 76.3434 32.5123C76.341 32.7412 76.3413 32.97 76.3446 33.1994C76.3477 33.4282 76.3592 33.6571 76.3785 33.8865C76.3873 33.9807 76.3616 34.0528 76.3011 34.1027C76.2411 34.1528 76.1742 34.1793 76.1001 34.1824C76.0256 34.1857 75.956 34.1651 75.8907 34.1208C75.8259 34.0767 75.7893 34.007 75.7805 33.9119C75.5011 34.0441 75.2021 34.1262 74.8834 34.1582C74.5653 34.1896 74.2587 34.147 73.9633 34.0302ZM73.9427 32.4073C73.9167 32.4985 73.8937 32.6017 73.8737 32.7176C73.8544 32.8329 73.8519 32.9428 73.8665 33.0473C73.881 33.1511 73.9176 33.2459 73.9766 33.331C74.0354 33.4156 74.1283 33.4723 74.2551 33.5013C74.5132 33.5698 74.7699 33.581 75.025 33.5351C75.2799 33.4886 75.5166 33.3884 75.7345 33.2344C75.7442 32.9899 75.7502 32.7526 75.7526 32.5232C75.7551 32.2938 75.7484 32.0619 75.7333 31.8277C75.6461 31.7763 75.5577 31.7317 75.4681 31.6936C75.3786 31.655 75.2808 31.6308 75.1752 31.6212C75.0701 31.6109 74.9588 31.6043 74.841 31.6019C74.7239 31.5988 74.6104 31.6049 74.5008 31.62C74.4912 31.6209 74.4651 31.6284 74.4234 31.6429C74.3822 31.6574 74.3586 31.6671 74.3531 31.6719C74.3047 31.6994 74.2614 31.7413 74.2236 31.7975C74.1631 31.8893 74.1098 31.9877 74.0638 32.0921C74.0184 32.1969 73.9781 32.3019 73.9427 32.4073Z" fill="white"/>
<path d="M77.1733 33.3733C77.1636 33.1593 77.1688 32.9419 77.1891 32.7213C77.2115 32.4556 77.2345 32.1918 77.2581 31.9291C77.2823 31.6659 77.2859 31.4002 77.269 31.1321C77.2647 31.038 77.2911 30.9649 77.3476 30.9124C77.4049 30.8592 77.4711 30.8312 77.5462 30.8278C77.6213 30.8248 77.6921 30.8469 77.7593 30.8943C77.8271 30.9411 77.8628 31.0114 77.867 31.1056C78.0607 31.0814 78.245 31.0657 78.4203 31.0585C78.6188 31.0546 78.7901 31.1041 78.9348 31.207C79.0801 31.3103 79.1918 31.4521 79.2701 31.6333C79.3379 31.8008 79.3806 31.9738 79.3985 32.1525C79.416 32.3306 79.4315 32.5093 79.4445 32.6887C79.4605 32.9422 79.479 33.1946 79.5002 33.4458C79.522 33.6963 79.5383 33.9481 79.5498 34.2017C79.5537 34.3013 79.5256 34.3762 79.4651 34.4263C79.4051 34.477 79.3391 34.5039 79.2665 34.5072C79.1939 34.5102 79.1252 34.4894 79.0607 34.4444C78.9959 34.4 78.9617 34.3279 78.9578 34.2283C78.9472 33.9892 78.933 33.7558 78.9154 33.5279C78.8976 33.2994 78.8782 33.0654 78.8573 32.8263C78.841 32.6977 78.8313 32.5649 78.8283 32.4278C78.8249 32.2911 78.8083 32.1658 78.7786 32.0523C78.7599 31.9841 78.7417 31.924 78.7241 31.8724C78.7072 31.8201 78.6775 31.7703 78.6358 31.7226C78.6252 31.7027 78.6034 31.6861 78.5704 31.6731C78.538 31.6595 78.5093 31.6532 78.4844 31.6538C78.4094 31.6571 78.3395 31.6653 78.275 31.6779C78.2102 31.6909 78.1433 31.709 78.074 31.7323C78.045 31.7438 78.0153 31.7549 77.9857 31.7661C77.9566 31.7776 77.93 31.7909 77.9058 31.8059C77.8628 31.988 77.8337 32.1604 77.8186 32.3228C77.8032 32.4855 77.7895 32.6497 77.7774 32.8154C77.7677 32.9356 77.7641 33.0566 77.7665 33.1789C77.7696 33.3006 77.7702 33.4213 77.7677 33.5412C77.7653 33.6604 77.7556 33.7803 77.7387 33.901C77.7223 34.0212 77.6894 34.1371 77.6394 34.25C77.5973 34.3369 77.5392 34.3879 77.4651 34.4033C77.3915 34.4193 77.3225 34.41 77.2581 34.3756C77.1933 34.3409 77.1434 34.2865 77.1079 34.2126C77.0722 34.1392 77.0731 34.0598 77.1104 33.9735C77.1506 33.8826 77.1709 33.7848 77.1709 33.68C77.1715 33.5747 77.1724 33.4723 77.1733 33.3733Z" fill="white"/>
<path d="M80.3427 32.3339C80.32 32.2753 80.3148 32.2131 80.3269 32.1479C80.2655 31.5475 80.2016 30.9509 80.1357 30.3583C80.0694 29.766 80.0449 29.1671 80.0618 28.5615C80.0691 28.4779 80.0972 28.4064 80.1465 28.3466C80.1965 28.2862 80.2634 28.2542 80.3475 28.25C80.4274 28.247 80.5013 28.2726 80.5691 28.3273C80.6369 28.3822 80.6674 28.4513 80.6611 28.535C80.6447 29.0802 80.6635 29.6169 80.7168 30.1458C80.7706 30.6741 80.8272 31.2084 80.8862 31.7494C81.158 31.5635 81.4313 31.382 81.7058 31.2048C81.9801 31.0279 82.2485 30.8414 82.5109 30.6457C82.5884 30.5878 82.6635 30.5709 82.7361 30.595C82.8093 30.6192 82.8662 30.6626 82.9068 30.7254C82.9471 30.7882 82.9637 30.8601 82.9564 30.9404C82.9498 31.0201 82.9083 31.0889 82.8317 31.1469C82.5708 31.3434 82.3054 31.529 82.0351 31.7035C81.7655 31.8774 81.4946 32.0549 81.2228 32.236C81.5666 32.4456 81.9083 32.6575 82.2482 32.8724C82.5878 33.0868 82.9204 33.3132 83.2458 33.5523C83.3127 33.6048 83.3457 33.6748 83.3451 33.7624C83.3441 33.8493 83.3175 33.9215 83.2652 33.9785C83.2022 34.0413 83.132 34.0718 83.0545 34.0703C82.9776 34.0685 82.9059 34.0443 82.839 33.9978C82.5388 33.7766 82.2343 33.568 81.9262 33.3723C81.6178 33.1767 81.3039 32.9808 80.9843 32.7843C80.9979 32.9745 81.0076 33.1665 81.0134 33.3603C81.0197 33.5535 81.0224 33.7452 81.0218 33.935C81.02 34.0347 80.9892 34.1095 80.9286 34.1596C80.8687 34.2104 80.8015 34.2372 80.7264 34.2405C80.6514 34.2436 80.5827 34.2227 80.5206 34.1778C80.4592 34.1334 80.4292 34.0612 80.431 33.9616C80.4286 33.692 80.4202 33.4218 80.4056 33.1514C80.3911 32.8803 80.3699 32.6077 80.3427 32.3339Z" fill="white"/>
</svg>
