<svg width="28" height="27" viewBox="0 0 28 27" fill="none" xmlns="http://www.w3.org/2000/svg">
<g clip-path="url(#clip0_1_22)">
<path d="M26.375 12.3757H1.62501C1.00368 12.3757 0.5 12.8794 0.5 13.5007C0.5 14.1221 1.00368 14.6257 1.62501 14.6257H26.375C26.9963 14.6257 27.5 14.1221 27.5 13.5007C27.5 12.8794 26.9963 12.3757 26.375 12.3757Z" fill="white"/>
<path d="M26.375 4.50037H1.625C1.00368 4.50037 0.5 5.00404 0.5 5.62536C0.5 6.24668 1.00368 6.75036 1.625 6.75036H26.375C26.9963 6.75036 27.5 6.24668 27.5 5.62536C27.5 5.00404 26.9963 4.50037 26.375 4.50037Z" fill="white"/>
<path d="M26.375 20.2501H1.62501C1.00368 20.2501 0.5 20.7537 0.5 21.3751C0.5 21.9964 1.00368 22.5001 1.62501 22.5001H26.375C26.9963 22.5001 27.5 21.9964 27.5 21.3751C27.5 20.7537 26.9963 20.2501 26.375 20.2501Z" fill="white"/>
</g>
<defs>
<clipPath id="clip0_1_22">
<rect width="27" height="27" fill="white" transform="translate(0.5)"/>
</clipPath>
</defs>
</svg>
