<svg width="58" height="57" viewBox="0 0 58 57" fill="none" xmlns="http://www.w3.org/2000/svg">
<circle cx="28.9072" cy="28.5476" r="28.3542" fill="#808080"/>
<circle cx="29.1841" cy="28.5476" r="16.9573" fill="white"/>
<path d="M36.0275 25.6632C36.0275 23.161 33.9931 21.1389 31.5039 21.1389H30.6825V18.4597C30.6825 17.6003 29.9876 16.9053 29.1283 16.9053C28.2691 16.9053 27.5741 17.6003 27.5741 18.4597V21.1389H24.769C24.769 21.1389 24.7311 21.1389 24.7185 21.1389H23.1011V37.4795H25.9568V37.4417H27.5741V40.2599C27.5741 41.1192 28.2691 41.8143 29.1283 41.8143C29.9876 41.8143 30.6825 41.1192 30.6825 40.2599V37.4417H30.9353C33.7404 37.4417 36.0275 35.1542 36.0275 32.3486C36.0275 31.0469 35.522 29.8716 34.726 28.9743C35.5347 28.1402 36.0275 26.9776 36.0275 25.6506V25.6632ZM30.9353 34.8003H26.3232V30.3771H30.9353C32.0346 30.3771 32.9317 31.3755 32.9317 32.5887C32.9317 33.8019 32.0346 34.8003 30.9353 34.8003ZM31.5039 27.8622H26.3232V23.995H31.5039C32.2873 23.995 32.9317 24.8165 32.9317 26.0424C32.9317 27.0407 32.2873 27.8622 31.5039 27.8622Z" fill="#808080"/>
</svg>
