<svg width="26" height="23" viewBox="0 0 26 23" fill="none" xmlns="http://www.w3.org/2000/svg">
<path d="M1.55989 6.79831C1.14291 6.79831 0.801758 6.45712 0.801758 6.04008V2.32457C0.801758 1.17453 1.7368 0.251953 2.87402 0.251953H5.79288C6.20986 0.251953 6.55103 0.593142 6.55103 1.01019C6.55103 1.42724 6.20986 1.7685 5.79288 1.7685H2.87402C2.57076 1.7685 2.31805 2.02126 2.31805 2.32457V6.04008C2.31805 6.45712 1.97687 6.79831 1.55989 6.79831Z" fill="#231F20"/>
<path d="M23.9125 6.79831C23.4955 6.79831 23.1544 6.45712 23.1544 6.04008V2.32457C23.1544 2.02126 22.9017 1.7685 22.5984 1.7685H19.6795C19.2626 1.7685 18.9214 1.42724 18.9214 1.01019C18.9214 0.593142 19.2626 0.251953 19.6795 0.251953H22.5984C23.7483 0.251953 24.6707 1.18717 24.6707 2.32457V6.04008C24.6707 6.45712 24.3295 6.79831 23.9125 6.79831Z" fill="#231F20"/>
<path d="M22.5984 22.0522H19.6795C19.2626 22.0522 18.9214 21.711 18.9214 21.294C18.9214 20.8769 19.2626 20.5357 19.6795 20.5357H22.5984C22.9017 20.5357 23.1544 20.2829 23.1544 19.9796V16.2641C23.1544 15.847 23.4955 15.5059 23.9125 15.5059C24.3295 15.5059 24.6707 15.847 24.6707 16.2641V19.9796C24.6707 21.1296 23.7356 22.0522 22.5984 22.0522Z" fill="#231F20"/>
<path d="M5.79288 22.0522H2.87402C1.72417 22.0522 0.801758 21.117 0.801758 19.9796V16.2641C0.801758 15.847 1.14291 15.5059 1.55989 15.5059C1.97687 15.5059 2.31805 15.847 2.31805 16.2641V19.9796C2.31805 20.2829 2.57076 20.5357 2.87402 20.5357H5.79288C6.20986 20.5357 6.55103 20.8769 6.55103 21.294C6.55103 21.711 6.20986 22.0522 5.79288 22.0522Z" fill="#231F20"/>
<path d="M24.2916 11.7902H1.1302C0.713224 11.7902 0.37207 11.449 0.37207 11.032C0.37207 10.6149 0.713224 10.2737 1.1302 10.2737H24.2916C24.7085 10.2737 25.0497 10.6149 25.0497 11.032C25.0497 11.449 24.7085 11.7902 24.2916 11.7902Z" fill="#231F20"/>
</svg>
