<svg width="26" height="8" viewBox="0 0 26 8" fill="none" xmlns="http://www.w3.org/2000/svg">
<path d="M4.26236 0.973633C2.45544 0.973633 0.977051 2.4523 0.977051 4.2595C0.977051 6.0667 2.45544 7.54529 4.26236 7.54529C6.06927 7.54529 7.54764 6.0667 7.54764 4.2595C7.54764 2.4523 6.06927 0.973633 4.26236 0.973633Z" fill="#231F20"/>
<path d="M13.6129 7.54529C15.4274 7.54529 16.8982 6.07421 16.8982 4.2595C16.8982 2.44479 15.4274 0.973633 13.6129 0.973633C11.7985 0.973633 10.3276 2.44479 10.3276 4.2595C10.3276 6.07421 11.7985 7.54529 13.6129 7.54529Z" fill="#231F20"/>
<path d="M22.6095 7.54529C24.4239 7.54529 25.8948 6.07421 25.8948 4.2595C25.8948 2.44479 24.4239 0.973633 22.6095 0.973633C20.7951 0.973633 19.3242 2.44479 19.3242 4.2595C19.3242 6.07421 20.7951 7.54529 22.6095 7.54529Z" fill="#231F20"/>
</svg>
